<?xml version="1.0" encoding="UTF-8"?>
<svg width="345px" height="345px" viewBox="0 0 345 345" version="1.1" xmlns="http://www.w3.org/2000/svg" xmlns:xlink="http://www.w3.org/1999/xlink">
    <title>Icon</title>
    <g id="Page-1" stroke="none" stroke-width="1" fill="none" fill-rule="evenodd">
        <g id="Icon">
            <rect id="Background" fill="#FFFFFF" x="0" y="0" width="345" height="345"></rect>
            <g id="reCAPTCHA" transform="translate(71.000000, 72.000000)" fill-rule="nonzero">
                <path d="M204,102 C203.995169,100.530874 203.961595,99.069651 203.896378,97.6154525 L203.896378,14.7076007 L181.19837,37.6281789 C162.621322,14.6661358 134.360828,0 102.706658,0 C69.7650666,0 40.4997545,15.8778866 22,40.4673051 L59.2048202,78.4320815 C62.8509071,71.6228129 68.0305485,65.7743104 74.2758763,61.3570788 C80.7712007,56.2386025 89.9744602,52.0535744 102.705451,52.0535744 C104.24345,52.0535744 105.430535,52.2350443 106.302746,52.576959 C122.07645,53.8341504 135.749215,62.6246365 143.799833,75.3833868 L117.464434,101.977024 C150.821479,101.844824 188.504553,101.76726 203.997101,101.994097" id="Path" fill="#1C3AA9"></path>
                <path d="M102,0 C100.530874,0.00483085376 99.069651,0.0384052874 97.6154525,0.103621813 L14.7076007,0.103621813 L37.6281789,22.8016297 C14.6661358,41.3786779 0,69.6391724 0,101.293342 C0,134.234933 15.8781305,163.500246 40.4673051,182 L78.4320815,144.79518 C71.6228129,141.149093 65.7743104,135.969451 61.3570788,129.724124 C56.2388464,123.228799 52.0535744,114.02554 52.0535744,101.294549 C52.0535744,99.7565505 52.2350443,98.5694648 52.576959,97.6972541 C53.8341504,81.9235504 62.6246365,68.250785 75.3833868,60.2001672 L101.977024,86.5355665 C101.844824,53.1785213 101.767016,15.4954465 101.994097,0.00289851226" id="Path" fill="#4285F4"></path>
                <path d="M1,100 C1.00483085,101.469126 1.03840529,102.930349 1.10362181,104.384548 L1.10362181,187.292399 L23.8016297,164.371821 C42.3786779,187.333864 70.6391724,202 102.293342,202 C135.234933,202 164.500246,186.122113 183,161.532695 L145.79518,123.567919 C142.149093,130.377187 136.969451,136.22569 130.724124,140.642921 C124.228799,145.761397 115.02554,149.946426 102.294549,149.946426 C100.75655,149.946426 99.5694648,149.764956 98.6972541,149.423041 C82.9235504,148.16585 69.250785,139.375364 61.2001672,126.616613 L87.5355665,100.022976 C54.1785213,100.155176 16.4954465,100.23274 1.00289851,100.005903" id="Path" fill="#ABABAB"></path>
            </g>
        </g>
    </g>
</svg>